:FULLY-SPECIFIED
:DEGREES
2286
root 8.6265 16.4358 -2.54844 6496.15 -92.6628 -6481.93
lowerback -0.142675 2.82031 -1.75287
upperback 2.29055 3.79268 -2.33864
thorax 2.47643 1.86532 -1.33362
lowerneck -19.3091 2.43169 -0.508715
upperneck 34.3652 2.33435 1.67365
head 15.2257 0.876426 1.14597
rclavicle -2.38542e-015 -1.82882e-014
rhumerus -22.5864 0.621391 -85.94
rradius 44.0128
rwrist 14.0349
rhand -28.1989 -13.6241
rfingers 7.12502
rthumb -1.57802 -43.598
lclavicle -2.38542e-015 -1.82882e-014
lhumerus -35.6735 0.758958 82.569
lradius 22.4688
lwrist -1.56996
lhand -20.6156 7.23204
lfingers 7.12502
lthumb 5.74548 37.1342
rfemur -14.0179 -2.31431 19.7142
rtibia 56.1909
rfoot 7.00839 4.967
rtoes -14.1417
lfemur -42.1204 2.72661 -23.7057
ltibia 35.2469
lfoot -5.59615 1.89674
ltoes -6.79073
2287
root 8.61736 16.4587 -2.52359 6506.22 -93.0247 -6492.18
lowerback -0.179463 2.7622 -2.19585
upperback 2.31749 3.72201 -2.49174
thorax 2.50663 1.81997 -1.24386
lowerneck -19.2757 2.5344 -0.528732
upperneck 34.5542 2.52483 1.54725
head 15.3065 0.927348 1.13245
rclavicle 3.57812e-014 -1.90833e-014
rhumerus -22.7095 0.858769 -86.2841
rradius 43.299
rwrist 14.0478
rhand -27.6731 -13.5707
rfingers 7.12502
rthumb -1.07018 -43.5478
lclavicle 3.57812e-014 -1.90833e-014
lhumerus -35.3617 0.281457 82.8589
lradius 22.7694
lwrist -1.41498
lhand -20.5029 7.10912
lfingers 7.12502
lthumb 5.85428 37.0082
rfemur -15.7771 -2.53965 18.7855
rtibia 59.1944
rfoot 6.47288 4.19367
rtoes -14.9104
lfemur -40.9253 2.66426 -24.3855
ltibia 35.226
lfoot -6.33241 1.86949
ltoes -5.85917
2288
root 8.61292 16.4777 -2.50329 6514.99 -93.4666 -6501.07
lowerback -0.195716 2.71542 -2.69963
upperback 2.3038 3.66525 -2.67337
thorax 2.48247 1.78073 -1.15168
lowerneck -19.2526 2.59106 -0.610369
upperneck 34.7285 2.6281 1.53592
head 15.381 0.95045 1.16212
rclavicle 3.97569e-015 -3.26007e-014
rhumerus -22.8767 0.961702 -86.5803
rradius 42.597
rwrist 14.3467
rhand -26.8838 -13.2828
rfingers 7.12502
rthumb -0.307902 -43.2623
lclavicle 3.97569e-015 -3.26007e-014
lhumerus -35.0844 -0.520797 83.2252
lradius 23.2073
lwrist -1.10527
lhand -20.3672 7.097
lfingers 7.12502
lthumb 5.98529 36.9925
rfemur -17.6607 -2.82927 17.8346
rtibia 62.0436
rfoot 6.02133 3.44278
rtoes -15.7163
lfemur -39.6954 2.62447 -25.1234
ltibia 35.0588
lfoot -7.06118 1.88053
ltoes -5.34294
2289
root 8.61174 16.4982 -2.48416 6522.54 -94.0279 -6508.75
lowerback -0.156364 2.65853 -3.28333
upperback 2.23453 3.59021 -2.8729
thorax 2.36694 1.732 -1.03839
lowerneck -19.1761 2.64017 -0.728446
upperneck 34.893 2.70591 1.59148
head 15.4367 0.966986 1.22047
rclavicle 5.56597e-015 -1.19271e-014
rhumerus -23.1109 1.05074 -86.8556
rradius 41.9
rwrist 15.0858
rhand -25.959 -12.9918
rfingers 7.12502
rthumb 0.585335 -42.9708
lclavicle 5.56597e-015 -1.19271e-014
lhumerus -34.8805 -1.16497 83.5326
lradius 23.7507
lwrist -0.784592
lhand -20.2146 7.17074
lfingers 7.12502
lthumb 6.13263 37.062
rfemur -19.6294 -3.12169 16.7901
rtibia 64.6869
rfoot 5.67109 3.04046
rtoes -14.9035
lfemur -38.4877 2.51257 -25.9165
ltibia 34.8414
lfoot -7.79063 1.96766
ltoes -4.66083
2290
root 8.60997 16.5206 -2.46773 6525.8 -94.5249 -6512.16
lowerback -0.113156 2.6041 -3.6552
upperback 2.19226 3.51575 -3.00311
thorax 2.28607 1.68784 -0.970728
lowerneck -19.1295 2.6952 -0.8301
upperneck 35.034 2.79146 1.64022
head 15.4886 0.98873 1.27491
rclavicle 6.36111e-015 9.78021e-014
rhumerus -23.3333 1.0415 -87.1138
rradius 41.149
rwrist 15.8444
rhand -24.7419 -12.4673
rfingers 7.12502
rthumb 1.76085 -42.4398
lclavicle 6.36111e-015 9.78021e-014
lhumerus -34.6402 -1.80925 83.8221
lradius 24.3379
lwrist -0.298288
lhand -20.4086 6.98398
lfingers 7.12502
lthumb 5.94537 36.8806
rfemur -21.548 -3.31227 16.0476
rtibia 67.0159
rfoot 5.23299 2.97592
rtoes -15.169
lfemur -37.2542 2.59558 -26.5264
ltibia 34.6539
lfoot -8.50114 1.99716
ltoes -4.35566
2291
root 8.61131 16.5413 -2.45466 6527.32 -94.8717 -6513.81
lowerback -0.16401 2.52786 -3.85612
upperback 2.19253 3.41827 -3.08126
thorax 2.30932 1.63429 -0.939075
lowerneck -19.1329 2.75472 -0.881368
upperneck 35.0898 2.88954 1.64774
head 15.5129 1.02022 1.30544
rclavicle 5.08889e-014 -6.36111e-015
rhumerus -23.4999 1.11783 -87.335
rradius 40.3893
rwrist 16.6503
rhand -23.5929 -11.849
rfingers 7.12502
rthumb 2.87048 -41.8094
lclavicle 5.08889e-014 -6.36111e-015
lhumerus -34.3065 -2.47045 84.098
lradius 24.963
lwrist 0.171326
lhand -20.7492 6.90994
lfingers 7.12502
lthumb 5.61645 36.8155
rfemur -23.4877 -3.51183 15.5507
rtibia 69.0265
rfoot 4.7889 2.97178
rtoes -14.4228
lfemur -36.1104 2.64721 -26.919
ltibia 34.5164
lfoot -9.24155 2.0224
ltoes -4.19518
2292
root 8.61706 16.5557 -2.44195 6526.88 -94.9556 -6513.41
lowerback -0.311334 2.43916 -3.69826
upperback 2.21066 3.30894 -3.09949
thorax 2.42175 1.58178 -1.04015
lowerneck -19.1541 2.76696 -0.957891
upperneck 35.1047 2.90238 1.72727
head 15.521 1.02495 1.35511
rclavicle 2.62396e-014 -3.89618e-014
rhumerus -23.571 0.761575 -87.5062
rradius 39.499
rwrist 18.1283
rhand -22.4796 -11.0553
rfingers 7.12502
rthumb 3.94569 -40.9985
lclavicle 2.62396e-014 -3.89618e-014
lhumerus -33.8827 -3.22434 84.3559
lradius 25.6107
lwrist 0.735926
lhand -21.236 6.72166
lfingers 7.12502
lthumb 5.14645 36.6392
rfemur -25.4848 -3.69433 15.4402
rtibia 70.6837
rfoot 4.44782 3.16148
rtoes -14.0493
lfemur -35.1213 2.56313 -26.9551
ltibia 34.4688
lfoot -9.97036 2.05331
ltoes -4.16103
2293
root 8.62068 16.5708 -2.42724 6527.65 -95.0223 -6514.26
lowerback -0.412321 2.30483 -3.62539
upperback 2.22476 3.1361 -3.08689
thorax 2.49745 1.49616 -1.06663
lowerneck -19.1302 2.81955 -0.99329
upperneck 35.0878 2.99061 1.72759
head 15.5043 1.05605 1.37639
rclavicle -2.10712e-014 3.4191e-014
rhumerus -23.7458 0.589991 -87.6027
rradius 38.7217
rwrist 19.3719
rhand -21.2378 -10.2667
rfingers 7.12502
rthumb 5.14472 -40.1843
lclavicle -2.10712e-014 3.4191e-014
lhumerus -33.4991 -3.77741 84.5767
lradius 26.1826
lwrist 1.01152
lhand -21.8426 6.12691
lfingers 7.12502
lthumb 4.56077 36.0578
rfemur -27.3345 -4.04935 15.2457
rtibia 71.9975
rfoot 3.99546 3.75454
rtoes -13.7275
lfemur -34.0742 2.45223 -27.0913
ltibia 34.4309
lfoot -10.6496 1.98509
ltoes -4.02477
2294
root 8.62705 16.5869 -2.41569 6525.78 -94.7973 -6512.5
lowerback -0.419192 2.14839 -3.22433
upperback 2.22334 2.9238 -2.95771
thorax 2.51348 1.39938 -1.1611
lowerneck -19.1546 2.87517 -0.949241
upperneck 35.1089 3.07436 1.67137
head 15.5208 1.08658 1.3607
rclavicle 1.51076e-014 1.19271e-014
rhumerus -23.9466 0.219471 -87.6558
rradius 37.8158
rwrist 20.8367
rhand -20.3196 -9.251
rfingers 7.12502
rthumb 6.03122 -39.1452
lclavicle 1.51076e-014 1.19271e-014
lhumerus -33.1712 -4.29003 84.8058
lradius 27.0155
lwrist 1.71008
lhand -22.3962 6.15925
lfingers 7.12502
lthumb 4.02613 36.101
rfemur -29.0884 -4.34974 15.5333
rtibia 72.9347
rfoot 3.57401 4.34646
rtoes -14.2168
lfemur -33.0416 2.39866 -26.8429
ltibia 34.4221
lfoot -11.2138 1.87324
ltoes -5.28501
2295
root 8.63382 16.6047 -2.40444 6525.5 -94.6034 -6512.34
lowerback -0.418553 1.98439 -2.96354
upperback 2.21783 2.70211 -2.84035
thorax 2.51356 1.29472 -1.19084
lowerneck -19.1091 2.89152 -1.03322
upperneck 35.0576 3.10767 1.72445
head 15.481 1.09716 1.40166
rclavicle -3.18055e-015 2.22639e-014
rhumerus -24.2472 -0.317154 -87.6003
rradius 36.9717
rwrist 22.5524
rhand -19.3796 -8.22292
rfingers 7.12502
rthumb 6.93876 -38.0892
lclavicle -3.18055e-015 2.22639e-014
lhumerus -32.8605 -4.85566 85.0723
lradius 27.8323
lwrist 2.36055
lhand -23.1822 6.11497
lfingers 7.12502
lthumb 3.2671 36.0697
rfemur -30.7763 -4.62393 15.7194
rtibia 73.5665
rfoot 3.04568 4.95095
rtoes -13.8486
lfemur -32.0067 2.18153 -26.6923
ltibia 34.4364
lfoot -11.9228 1.73295
ltoes -5.36275
2296
root 8.64339 16.6208 -2.39558 6524.63 -94.2919 -6511.57
lowerback -0.364548 1.79088 -2.61683
upperback 2.17166 2.43624 -2.67419
thorax 2.44182 1.1707 -1.22201
lowerneck -19.0148 2.91914 -1.06468
upperneck 35.0155 3.14768 1.74199
head 15.4363 1.11146 1.41852
rclavicle 3.33958e-014 1.43125e-014
rhumerus -24.63 -0.676166 -87.581
rradius 36.2525
rwrist 23.6069
rhand -18.7493 -7.6734
rfingers 7.12502
rthumb 7.54715 -37.5188
lclavicle 3.33958e-014 1.43125e-014
lhumerus -32.5636 -5.32961 85.2907
lradius 28.6133
lwrist 2.9938
lhand -23.9721 5.87749
lfingers 7.12502
lthumb 2.50429 35.8425
rfemur -32.3894 -4.8898 16.094
rtibia 73.8887
rfoot 2.49412 5.5527
rtoes -13.604
lfemur -31.0057 1.91892 -26.4185
ltibia 34.4671
lfoot -12.5956 1.66893
ltoes -5.86787
2297
root 8.65509 16.6155 -2.38674 6525.39 -94.0359 -6512.43
lowerback -0.337398 1.58209 -2.41797
upperback 2.14846 2.15371 -2.51582
thorax 2.40237 1.03423 -1.17784
lowerneck -18.9839 2.9533 -1.09161
upperneck 34.9808 3.2145 1.71899
head 15.4107 1.13222 1.424
rclavicle -1.23246e-014 1.63003e-014
rhumerus -24.9761 -1.00256 -87.5096
rradius 35.5569
rwrist 24.3121
rhand -18.1126 -7.45949
rfingers 7.12502
rthumb 8.16165 -37.2819
lclavicle -1.23246e-014 1.63003e-014
lhumerus -32.2442 -5.82071 85.5399
lradius 29.4973
lwrist 3.82303
lhand -24.7037 5.67654
lfingers 7.12502
lthumb 1.79773 35.6487
rfemur -34.0341 -5.15231 16.3253
rtibia 74.0537
rfoot 1.86042 6.18663
rtoes -13.6519
lfemur -30.0539 1.6556 -26.304
ltibia 34.5072
lfoot -13.1366 1.48729
ltoes -5.84118
2298
root 8.66671 16.6184 -2.38235 6527.47 -93.8585 -6514.55
lowerback -0.360467 1.3972 -2.39561
upperback 2.11385 1.9071 -2.37605
thorax 2.37444 0.911809 -1.0522
lowerneck -18.9663 2.93707 -1.16778
upperneck 34.9462 3.20565 1.74742
head 15.3874 1.12246 1.44631
rclavicle 1.88845e-014 3.81667e-014
rhumerus -25.3796 -1.46338 -87.3542
rradius 34.8848
rwrist 24.914
rhand -17.7897 -7.13705
rfingers 7.12502
rthumb 8.47333 -36.9471
lclavicle 1.88845e-014 3.81667e-014
lhumerus -31.8729 -6.33183 85.7808
lradius 30.3342
lwrist 4.51987
lhand -25.5696 5.67085
lfingers 7.12502
lthumb 0.961463 35.6484
rfemur -35.6703 -5.41043 16.4893
rtibia 73.9298
rfoot 1.22376 6.80846
rtoes -13.2485
lfemur -29.1458 1.44457 -26.3209
ltibia 34.5336
lfoot -13.7234 1.38237
ltoes -5.89238
2299
root 8.67797 16.6221 -2.37755 6529.49 -93.6563 -6516.64
lowerback -0.359707 1.19736 -2.32654
upperback 2.12011 1.63959 -2.23039
thorax 2.37736 0.779272 -0.94729
lowerneck -18.9194 2.93529 -1.20687
upperneck 34.8221 3.20882 1.77677
head 15.315 1.12635 1.46261
rclavicle -1.0138e-014 1.78906e-014
rhumerus -25.7466 -1.97582 -87.2022
rradius 34.242
rwrist 25.4636
rhand -17.4872 -6.96837
rfingers 7.12502
rthumb 8.76525 -36.7664
lclavicle -1.0138e-014 1.78906e-014
lhumerus -31.4244 -6.82585 85.9715
lradius 31.1632
lwrist 5.2576
lhand -26.4798 5.49039
lfingers 7.12502
lthumb 0.0823727 35.4701
rfemur -37.1676 -5.66575 16.7144
rtibia 73.5458
rfoot 0.4688 7.20794
rtoes -12.7854
lfemur -28.193 1.25449 -26.3085
ltibia 34.5508
lfoot -14.3253 1.2785
ltoes -6.60591
